<?xml version="1.0" encoding="UTF-8" standalone="no"?><!DOCTYPE svg PUBLIC "-//W3C//DTD SVG 1.1//EN" "http://www.w3.org/Graphics/SVG/1.1/DTD/svg11.dtd"><svg width="100%" height="100%" viewBox="0 0 18750 25000" version="1.1" xmlns="http://www.w3.org/2000/svg" xmlns:xlink="http://www.w3.org/1999/xlink" xml:space="preserve" xmlns:serif="http://www.serif.com/" style="fill-rule:evenodd;clip-rule:evenodd;stroke-linecap:round;stroke-linejoin:round;stroke-miterlimit:1.5;"><g opacity="0.4"><g><path d="M220.562,26815l-0,-26984.8" style="fill:none;stroke:#000;stroke-width:4.17px;"/><path d="M557.873,26815l-0,-26984.8" style="fill:none;stroke:#000;stroke-width:4.17px;"/><path d="M895.183,26815l0,-26984.8" style="fill:none;stroke:#000;stroke-width:4.17px;"/><path d="M1232.49,26815l-0,-26984.8" style="fill:none;stroke:#000;stroke-width:4.17px;"/><path d="M1569.8,26815l0,-26984.8" style="fill:none;stroke:#000;stroke-width:4.17px;"/><path d="M1907.12,26815l-0,-26984.8" style="fill:none;stroke:#000;stroke-width:4.17px;"/><path d="M2244.43,26815l0,-26984.8" style="fill:none;stroke:#000;stroke-width:4.17px;"/><path d="M2581.74,26815l0,-26984.8" style="fill:none;stroke:#000;stroke-width:4.17px;"/><path d="M2919.05,26815l-0,-26984.8" style="fill:none;stroke:#000;stroke-width:4.17px;"/><path d="M3256.36,26815l0,-26984.8" style="fill:none;stroke:#000;stroke-width:4.17px;"/><path d="M3593.67,26815l-0,-26984.8" style="fill:none;stroke:#000;stroke-width:4.17px;"/><path d="M3930.98,26815l0,-26984.8" style="fill:none;stroke:#000;stroke-width:4.17px;"/><path d="M4268.29,26815l0,-26984.8" style="fill:none;stroke:#000;stroke-width:4.17px;"/><path d="M4605.6,26815l-0,-26984.8" style="fill:none;stroke:#000;stroke-width:4.17px;"/><path d="M4942.91,26815l0,-26984.8" style="fill:none;stroke:#000;stroke-width:4.17px;"/><path d="M5280.22,26815l-0,-26984.8" style="fill:none;stroke:#000;stroke-width:4.17px;"/><path d="M5617.53,26815l0,-26984.8" style="fill:none;stroke:#000;stroke-width:4.17px;"/><path d="M5954.84,26815l-0,-26984.8" style="fill:none;stroke:#000;stroke-width:4.17px;"/><path d="M6292.15,26815l-0,-26984.8" style="fill:none;stroke:#000;stroke-width:4.17px;"/><path d="M6629.46,26815l0,-26984.8" style="fill:none;stroke:#000;stroke-width:4.17px;"/><path d="M6966.77,26815l-0,-26984.8" style="fill:none;stroke:#000;stroke-width:4.17px;"/><path d="M7304.08,26815l0,-26984.8" style="fill:none;stroke:#000;stroke-width:4.17px;"/><path d="M7641.4,26815l-0,-26984.8" style="fill:none;stroke:#000;stroke-width:4.17px;"/><path d="M7978.71,26815l-0,-26984.8" style="fill:none;stroke:#000;stroke-width:4.17px;"/><path d="M8316.02,26815l0,-26984.8" style="fill:none;stroke:#000;stroke-width:4.17px;"/><path d="M8653.33,26815l-0,-26984.8" style="fill:none;stroke:#000;stroke-width:4.17px;"/><path d="M8990.64,26815l0,-26984.8" style="fill:none;stroke:#000;stroke-width:4.17px;"/><path d="M9327.95,26815l-0,-26984.8" style="fill:none;stroke:#000;stroke-width:4.17px;"/><path d="M9665.26,26815l0,-26984.8" style="fill:none;stroke:#000;stroke-width:4.17px;"/><path d="M10002.6,26815l0,-26984.8" style="fill:none;stroke:#000;stroke-width:4.17px;"/><path d="M10339.9,26815l-0,-26984.8" style="fill:none;stroke:#000;stroke-width:4.17px;"/><path d="M10677.2,26815l0,-26984.8" style="fill:none;stroke:#000;stroke-width:4.17px;"/><path d="M11014.5,26815l-0,-26984.8" style="fill:none;stroke:#000;stroke-width:4.17px;"/><path d="M11351.8,26815l0,-26984.8" style="fill:none;stroke:#000;stroke-width:4.17px;"/><path d="M11689.1,26815l0,-26984.8" style="fill:none;stroke:#000;stroke-width:4.17px;"/><path d="M12026.4,26815l-0,-26984.8" style="fill:none;stroke:#000;stroke-width:4.17px;"/><path d="M12363.7,26815l0,-26984.8" style="fill:none;stroke:#000;stroke-width:4.17px;"/><path d="M12701.1,26815l-0,-26984.8" style="fill:none;stroke:#000;stroke-width:4.17px;"/><path d="M13038.4,26815l0,-26984.8" style="fill:none;stroke:#000;stroke-width:4.17px;"/><path d="M13375.7,26815l0,-26984.8" style="fill:none;stroke:#000;stroke-width:4.17px;"/><path d="M13713,26815l-0,-26984.8" style="fill:none;stroke:#000;stroke-width:4.17px;"/><path d="M14050.3,26815l0,-26984.8" style="fill:none;stroke:#000;stroke-width:4.17px;"/><path d="M14387.6,26815l-0,-26984.8" style="fill:none;stroke:#000;stroke-width:4.17px;"/><path d="M14724.9,26815l0,-26984.8" style="fill:none;stroke:#000;stroke-width:4.17px;"/><path d="M15062.2,26815l-0,-26984.8" style="fill:none;stroke:#000;stroke-width:4.17px;"/><path d="M15399.5,26815l-0,-26984.8" style="fill:none;stroke:#000;stroke-width:4.17px;"/><path d="M15736.8,26815l0,-26984.8" style="fill:none;stroke:#000;stroke-width:4.17px;"/><path d="M16074.2,26815l-0,-26984.8" style="fill:none;stroke:#000;stroke-width:4.17px;"/><path d="M16411.5,26815l0,-26984.8" style="fill:none;stroke:#000;stroke-width:4.17px;"/><path d="M16748.8,26815l-0,-26984.8" style="fill:none;stroke:#000;stroke-width:4.17px;"/><path d="M17086.1,26815l-0,-26984.8" style="fill:none;stroke:#000;stroke-width:4.17px;"/><path d="M17423.4,26815l0,-26984.8" style="fill:none;stroke:#000;stroke-width:4.17px;"/><path d="M17760.7,26815l-0,-26984.8" style="fill:none;stroke:#000;stroke-width:4.17px;"/><path d="M18098,26815l0,-26984.8" style="fill:none;stroke:#000;stroke-width:4.17px;"/><path d="M18435.3,26815l-0,-26984.8" style="fill:none;stroke:#000;stroke-width:4.17px;"/></g><g><path d="M35881.4,18786.2l-34892.1,20145" style="fill:none;stroke:#000;stroke-width:4.17px;"/><path d="M35712.7,18494.1l-34892.1,20145" style="fill:none;stroke:#000;stroke-width:4.17px;"/><path d="M35544.1,18202l-34892.1,20145" style="fill:none;stroke:#000;stroke-width:4.17px;"/><path d="M35375.4,17909.9l-34892.1,20145" style="fill:none;stroke:#000;stroke-width:4.17px;"/><path d="M35206.8,17617.7l-34892.1,20145" style="fill:none;stroke:#000;stroke-width:4.17px;"/><path d="M35038.1,17325.6l-34892.1,20145" style="fill:none;stroke:#000;stroke-width:4.17px;"/><path d="M34869.4,17033.5l-34892.1,20145" style="fill:none;stroke:#000;stroke-width:4.17px;"/><path d="M34700.8,16741.4l-34892.1,20145" style="fill:none;stroke:#000;stroke-width:4.17px;"/><path d="M34532.1,16449.3l-34892.1,20145" style="fill:none;stroke:#000;stroke-width:4.17px;"/><path d="M34363.5,16157.1l-34892.1,20145" style="fill:none;stroke:#000;stroke-width:4.17px;"/><path d="M34194.8,15865l-34892.1,20145" style="fill:none;stroke:#000;stroke-width:4.17px;"/><path d="M34026.2,15572.9l-34892.1,20145" style="fill:none;stroke:#000;stroke-width:4.17px;"/><path d="M33857.5,15280.8l-34892.1,20145" style="fill:none;stroke:#000;stroke-width:4.17px;"/><path d="M33688.9,14988.7l-34892.1,20145" style="fill:none;stroke:#000;stroke-width:4.17px;"/><path d="M33520.2,14696.5l-34892.1,20145" style="fill:none;stroke:#000;stroke-width:4.17px;"/><path d="M33351.6,14404.4l-34892.1,20145" style="fill:none;stroke:#000;stroke-width:4.17px;"/><path d="M33182.9,14112.3l-34892.1,20145" style="fill:none;stroke:#000;stroke-width:4.17px;"/><path d="M33014.2,13820.2l-34892.1,20145" style="fill:none;stroke:#000;stroke-width:4.17px;"/><path d="M32845.6,13528.1l-34892.1,20145" style="fill:none;stroke:#000;stroke-width:4.17px;"/><path d="M32676.9,13235.9l-34892.1,20145" style="fill:none;stroke:#000;stroke-width:4.17px;"/><path d="M32508.3,12943.8l-34892.1,20145" style="fill:none;stroke:#000;stroke-width:4.17px;"/><path d="M32339.6,12651.7l-34892.1,20145" style="fill:none;stroke:#000;stroke-width:4.17px;"/><path d="M32171,12359.6l-34892.1,20145" style="fill:none;stroke:#000;stroke-width:4.17px;"/><path d="M32002.3,12067.5l-34892.1,20145" style="fill:none;stroke:#000;stroke-width:4.17px;"/><path d="M31833.7,11775.3l-34892.1,20145" style="fill:none;stroke:#000;stroke-width:4.17px;"/><path d="M31665,11483.2l-34892.1,20145" style="fill:none;stroke:#000;stroke-width:4.17px;"/><path d="M31496.3,11191.1l-34892.1,20145" style="fill:none;stroke:#000;stroke-width:4.17px;"/><path d="M31327.7,10899l-34892.1,20145" style="fill:none;stroke:#000;stroke-width:4.17px;"/><path d="M31159,10606.9l-34892.1,20145" style="fill:none;stroke:#000;stroke-width:4.17px;"/><path d="M30990.4,10314.7l-34892.1,20145" style="fill:none;stroke:#000;stroke-width:4.17px;"/><path d="M30821.7,10022.6l-34892.1,20145" style="fill:none;stroke:#000;stroke-width:4.17px;"/><path d="M30653.1,9730.51l-34892.1,20145" style="fill:none;stroke:#000;stroke-width:4.17px;"/><path d="M30484.4,9438.39l-34892.1,20145" style="fill:none;stroke:#000;stroke-width:4.17px;"/><path d="M30315.8,9146.27l-34892.1,20145" style="fill:none;stroke:#000;stroke-width:4.17px;"/><path d="M30147.1,8854.15l-34892.1,20145" style="fill:none;stroke:#000;stroke-width:4.17px;"/><path d="M29978.4,8562.03l-34892.1,20145" style="fill:none;stroke:#000;stroke-width:4.17px;"/><path d="M29809.8,8269.91l-34892.1,20145" style="fill:none;stroke:#000;stroke-width:4.17px;"/><path d="M29641.1,7977.79l-34892.1,20145" style="fill:none;stroke:#000;stroke-width:4.17px;"/><path d="M29472.5,7685.67l-34892.1,20145" style="fill:none;stroke:#000;stroke-width:4.17px;"/><path d="M29303.8,7393.55l-34892.1,20145" style="fill:none;stroke:#000;stroke-width:4.17px;"/><path d="M29135.2,7101.43l-34892.1,20145" style="fill:none;stroke:#000;stroke-width:4.17px;"/><path d="M28966.5,6809.31l-34892.1,20145" style="fill:none;stroke:#000;stroke-width:4.17px;"/><path d="M28797.9,6517.19l-34892.1,20145" style="fill:none;stroke:#000;stroke-width:4.17px;"/><path d="M28629.2,6225.07l-34892.1,20145" style="fill:none;stroke:#000;stroke-width:4.17px;"/><path d="M28460.5,5932.95l-34892.1,20145" style="fill:none;stroke:#000;stroke-width:4.17px;"/><path d="M28291.9,5640.84l-34892.1,20145" style="fill:none;stroke:#000;stroke-width:4.17px;"/><path d="M28123.2,5348.72l-34892.1,20145" style="fill:none;stroke:#000;stroke-width:4.17px;"/><path d="M27954.6,5056.6l-34892.1,20145" style="fill:none;stroke:#000;stroke-width:4.17px;"/><path d="M27785.9,4764.48l-34892.1,20145" style="fill:none;stroke:#000;stroke-width:4.17px;"/><path d="M27617.3,4472.36l-34892.1,20145" style="fill:none;stroke:#000;stroke-width:4.17px;"/><path d="M27448.6,4180.24l-34892.1,20145" style="fill:none;stroke:#000;stroke-width:4.17px;"/><path d="M27280,3888.12l-34892.1,20145" style="fill:none;stroke:#000;stroke-width:4.17px;"/><path d="M27111.3,3596l-34892.1,20145" style="fill:none;stroke:#000;stroke-width:4.17px;"/><path d="M26942.7,3303.88l-34892.1,20145" style="fill:none;stroke:#000;stroke-width:4.17px;"/><path d="M26774,3011.76l-34892.1,20145" style="fill:none;stroke:#000;stroke-width:4.17px;"/><path d="M26605.3,2719.64l-34892.1,20145" style="fill:none;stroke:#000;stroke-width:4.17px;"/><path d="M26436.7,2427.52l-34892.1,20145" style="fill:none;stroke:#000;stroke-width:4.17px;"/><path d="M26268,2135.4l-34892.1,20145" style="fill:none;stroke:#000;stroke-width:4.17px;"/><path d="M26099.4,1843.28l-34892.1,20145" style="fill:none;stroke:#000;stroke-width:4.17px;"/><path d="M25930.7,1551.16l-34892.1,20145" style="fill:none;stroke:#000;stroke-width:4.17px;"/><path d="M25762.1,1259.04l-34892.1,20145" style="fill:none;stroke:#000;stroke-width:4.17px;"/><path d="M25593.4,966.923l-34892.1,20145" style="fill:none;stroke:#000;stroke-width:4.17px;"/><path d="M25424.8,674.803l-34892.1,20145" style="fill:none;stroke:#000;stroke-width:4.17px;"/><path d="M25256.1,382.684l-34892.1,20145" style="fill:none;stroke:#000;stroke-width:4.17px;"/><path d="M25087.4,90.564l-34892.1,20145" style="fill:none;stroke:#000;stroke-width:4.17px;"/><path d="M24918.8,-201.556l-34892.1,20145" style="fill:none;stroke:#000;stroke-width:4.17px;"/><path d="M24750.1,-493.675l-34892.1,20145" style="fill:none;stroke:#000;stroke-width:4.17px;"/><path d="M24581.5,-785.795l-34892.1,20145" style="fill:none;stroke:#000;stroke-width:4.17px;"/><path d="M24412.8,-1077.91l-34892.1,20145" style="fill:none;stroke:#000;stroke-width:4.17px;"/><path d="M24244.2,-1370.03l-34892.1,20145" style="fill:none;stroke:#000;stroke-width:4.17px;"/><path d="M24075.5,-1662.15l-34892.1,20145" style="fill:none;stroke:#000;stroke-width:4.17px;"/><path d="M23906.9,-1954.27l-34892.1,20145" style="fill:none;stroke:#000;stroke-width:4.17px;"/><path d="M23738.2,-2246.39l-34892.1,20145" style="fill:none;stroke:#000;stroke-width:4.17px;"/><path d="M23569.5,-2538.51l-34892.1,20145" style="fill:none;stroke:#000;stroke-width:4.17px;"/><path d="M23400.9,-2830.63l-34892.1,20145" style="fill:none;stroke:#000;stroke-width:4.17px;"/><path d="M23232.2,-3122.75l-34892.1,20145" style="fill:none;stroke:#000;stroke-width:4.17px;"/><path d="M23063.6,-3414.87l-34892.1,20145" style="fill:none;stroke:#000;stroke-width:4.17px;"/><path d="M22894.9,-3706.99l-34892.1,20145" style="fill:none;stroke:#000;stroke-width:4.17px;"/><path d="M22726.3,-3999.11l-34892.1,20145" style="fill:none;stroke:#000;stroke-width:4.17px;"/><path d="M22557.6,-4291.23l-34892.1,20145" style="fill:none;stroke:#000;stroke-width:4.17px;"/><path d="M22389,-4583.35l-34892.1,20145" style="fill:none;stroke:#000;stroke-width:4.17px;"/><path d="M22220.3,-4875.47l-34892.1,20145" style="fill:none;stroke:#000;stroke-width:4.17px;"/><path d="M22051.6,-5167.59l-34892.1,20145" style="fill:none;stroke:#000;stroke-width:4.17px;"/><path d="M21883,-5459.71l-34892.1,20145" style="fill:none;stroke:#000;stroke-width:4.17px;"/><path d="M21714.3,-5751.83l-34892.1,20145" style="fill:none;stroke:#000;stroke-width:4.17px;"/><path d="M21545.7,-6043.95l-34892.1,20145" style="fill:none;stroke:#000;stroke-width:4.17px;"/><path d="M21377,-6336.07l-34892.1,20145" style="fill:none;stroke:#000;stroke-width:4.17px;"/><path d="M21208.4,-6628.19l-34892.1,20145" style="fill:none;stroke:#000;stroke-width:4.17px;"/><path d="M21039.7,-6920.31l-34892.1,20145" style="fill:none;stroke:#000;stroke-width:4.17px;"/><path d="M20871.1,-7212.43l-34892.1,20145" style="fill:none;stroke:#000;stroke-width:4.17px;"/><path d="M20702.4,-7504.54l-34892.1,20145" style="fill:none;stroke:#000;stroke-width:4.17px;"/><path d="M20533.7,-7796.66l-34892.1,20145" style="fill:none;stroke:#000;stroke-width:4.17px;"/><path d="M20365.1,-8088.78l-34892.1,20145" style="fill:none;stroke:#000;stroke-width:4.17px;"/><path d="M20196.4,-8380.9l-34892.1,20145" style="fill:none;stroke:#000;stroke-width:4.17px;"/><path d="M20027.8,-8673.02l-34892.1,20145" style="fill:none;stroke:#000;stroke-width:4.17px;"/><path d="M19859.1,-8965.14l-34892.1,20145" style="fill:none;stroke:#000;stroke-width:4.17px;"/><path d="M19690.5,-9257.26l-34892.1,20145" style="fill:none;stroke:#000;stroke-width:4.17px;"/><path d="M19521.8,-9549.38l-34892.1,20145" style="fill:none;stroke:#000;stroke-width:4.17px;"/><path d="M19353.2,-9841.5l-34892.1,20145" style="fill:none;stroke:#000;stroke-width:4.17px;"/><path d="M19184.5,-10133.6l-34892.1,20145" style="fill:none;stroke:#000;stroke-width:4.17px;"/><path d="M19015.9,-10425.7l-34892.1,20145" style="fill:none;stroke:#000;stroke-width:4.17px;"/><path d="M18847.2,-10717.9l-34892.1,20145" style="fill:none;stroke:#000;stroke-width:4.17px;"/><path d="M18678.5,-11010l-34892.1,20145" style="fill:none;stroke:#000;stroke-width:4.17px;"/><path d="M18509.9,-11302.1l-34892.1,20145" style="fill:none;stroke:#000;stroke-width:4.17px;"/><path d="M18341.2,-11594.2l-34892.1,20145" style="fill:none;stroke:#000;stroke-width:4.17px;"/><path d="M18172.6,-11886.3l-34892.1,20145" style="fill:none;stroke:#000;stroke-width:4.17px;"/><path d="M18003.9,-12178.5l-34892.1,20145" style="fill:none;stroke:#000;stroke-width:4.17px;"/><path d="M17835.3,-12470.6l-34892.1,20145" style="fill:none;stroke:#000;stroke-width:4.17px;"/><path d="M17666.6,-12762.7l-34892.1,20145" style="fill:none;stroke:#000;stroke-width:4.17px;"/><path d="M17498,-13054.8l-34892.1,20145" style="fill:none;stroke:#000;stroke-width:4.17px;"/><path d="M17329.3,-13346.9l-34892.1,20145" style="fill:none;stroke:#000;stroke-width:4.17px;"/><path d="M17160.6,-13639.1l-34892.1,20145" style="fill:none;stroke:#000;stroke-width:4.17px;"/><path d="M16992,-13931.2l-34892.1,20145" style="fill:none;stroke:#000;stroke-width:4.17px;"/></g><g><path d="M-17900.1,18786.2l34892.1,20145" style="fill:none;stroke:#000;stroke-width:4.17px;"/><path d="M-17731.5,18494.1l34892.1,20145" style="fill:none;stroke:#000;stroke-width:4.17px;"/><path d="M-17562.8,18202l34892.1,20145" style="fill:none;stroke:#000;stroke-width:4.17px;"/><path d="M-17394.1,17909.9l34892.1,20145" style="fill:none;stroke:#000;stroke-width:4.17px;"/><path d="M-17225.5,17617.7l34892.1,20145" style="fill:none;stroke:#000;stroke-width:4.17px;"/><path d="M-17056.8,17325.6l34892.1,20145" style="fill:none;stroke:#000;stroke-width:4.17px;"/><path d="M-16888.2,17033.5l34892.1,20145" style="fill:none;stroke:#000;stroke-width:4.17px;"/><path d="M-16719.5,16741.4l34892.1,20145" style="fill:none;stroke:#000;stroke-width:4.17px;"/><path d="M-16550.9,16449.3l34892.1,20145" style="fill:none;stroke:#000;stroke-width:4.17px;"/><path d="M-16382.2,16157.1l34892.1,20145" style="fill:none;stroke:#000;stroke-width:4.17px;"/><path d="M-16213.6,15865l34892.1,20145" style="fill:none;stroke:#000;stroke-width:4.17px;"/><path d="M-16044.9,15572.9l34892.1,20145" style="fill:none;stroke:#000;stroke-width:4.17px;"/><path d="M-15876.2,15280.8l34892.1,20145" style="fill:none;stroke:#000;stroke-width:4.17px;"/><path d="M-15707.6,14988.7l34892.1,20145" style="fill:none;stroke:#000;stroke-width:4.17px;"/><path d="M-15538.9,14696.5l34892.1,20145" style="fill:none;stroke:#000;stroke-width:4.17px;"/><path d="M-15370.3,14404.4l34892.1,20145" style="fill:none;stroke:#000;stroke-width:4.17px;"/><path d="M-15201.6,14112.3l34892.1,20145" style="fill:none;stroke:#000;stroke-width:4.17px;"/><path d="M-15033,13820.2l34892.1,20145" style="fill:none;stroke:#000;stroke-width:4.17px;"/><path d="M-14864.3,13528.1l34892.1,20145" style="fill:none;stroke:#000;stroke-width:4.17px;"/><path d="M-14695.7,13235.9l34892.1,20145" style="fill:none;stroke:#000;stroke-width:4.17px;"/><path d="M-14527,12943.8l34892.1,20145" style="fill:none;stroke:#000;stroke-width:4.17px;"/><path d="M-14358.3,12651.7l34892.1,20145" style="fill:none;stroke:#000;stroke-width:4.17px;"/><path d="M-14189.7,12359.6l34892.1,20145" style="fill:none;stroke:#000;stroke-width:4.17px;"/><path d="M-14021,12067.5l34892.1,20145" style="fill:none;stroke:#000;stroke-width:4.17px;"/><path d="M-13852.4,11775.3l34892.1,20145" style="fill:none;stroke:#000;stroke-width:4.17px;"/><path d="M-13683.7,11483.2l34892.1,20145" style="fill:none;stroke:#000;stroke-width:4.17px;"/><path d="M-13515.1,11191.1l34892.1,20145" style="fill:none;stroke:#000;stroke-width:4.17px;"/><path d="M-13346.4,10899l34892.1,20145" style="fill:none;stroke:#000;stroke-width:4.17px;"/><path d="M-13177.8,10606.9l34892.1,20145" style="fill:none;stroke:#000;stroke-width:4.17px;"/><path d="M-13009.1,10314.7l34892.1,20145" style="fill:none;stroke:#000;stroke-width:4.17px;"/><path d="M-12840.4,10022.6l34892.1,20145" style="fill:none;stroke:#000;stroke-width:4.17px;"/><path d="M-12671.8,9730.51l34892.1,20145" style="fill:none;stroke:#000;stroke-width:4.17px;"/><path d="M-12503.1,9438.39l34892.1,20145" style="fill:none;stroke:#000;stroke-width:4.17px;"/><path d="M-12334.5,9146.27l34892.1,20145" style="fill:none;stroke:#000;stroke-width:4.17px;"/><path d="M-12165.8,8854.15l34892.1,20145" style="fill:none;stroke:#000;stroke-width:4.17px;"/><path d="M-11997.2,8562.03l34892.1,20145" style="fill:none;stroke:#000;stroke-width:4.17px;"/><path d="M-11828.5,8269.91l34892.1,20145" style="fill:none;stroke:#000;stroke-width:4.17px;"/><path d="M-11659.9,7977.79l34892.1,20145" style="fill:none;stroke:#000;stroke-width:4.17px;"/><path d="M-11491.2,7685.67l34892.1,20145" style="fill:none;stroke:#000;stroke-width:4.17px;"/><path d="M-11322.5,7393.55l34892.1,20145" style="fill:none;stroke:#000;stroke-width:4.17px;"/><path d="M-11153.9,7101.43l34892.1,20145" style="fill:none;stroke:#000;stroke-width:4.17px;"/><path d="M-10985.2,6809.31l34892.1,20145" style="fill:none;stroke:#000;stroke-width:4.17px;"/><path d="M-10816.6,6517.19l34892.1,20145" style="fill:none;stroke:#000;stroke-width:4.17px;"/><path d="M-10647.9,6225.07l34892.1,20145" style="fill:none;stroke:#000;stroke-width:4.17px;"/><path d="M-10479.3,5932.95l34892.1,20145" style="fill:none;stroke:#000;stroke-width:4.17px;"/><path d="M-10310.6,5640.84l34892.1,20145" style="fill:none;stroke:#000;stroke-width:4.17px;"/><path d="M-10142,5348.72l34892.1,20145" style="fill:none;stroke:#000;stroke-width:4.17px;"/><path d="M-9973.31,5056.6l34892.1,20145" style="fill:none;stroke:#000;stroke-width:4.17px;"/><path d="M-9804.65,4764.48l34892.1,20145" style="fill:none;stroke:#000;stroke-width:4.17px;"/><path d="M-9636,4472.36l34892.1,20145" style="fill:none;stroke:#000;stroke-width:4.17px;"/><path d="M-9467.34,4180.24l34892.1,20145" style="fill:none;stroke:#000;stroke-width:4.17px;"/><path d="M-9298.69,3888.12l34892.1,20145" style="fill:none;stroke:#000;stroke-width:4.17px;"/><path d="M-9130.03,3596l34892.1,20145" style="fill:none;stroke:#000;stroke-width:4.17px;"/><path d="M-8961.38,3303.88l34892.1,20145" style="fill:none;stroke:#000;stroke-width:4.17px;"/><path d="M-8792.72,3011.76l34892.1,20145" style="fill:none;stroke:#000;stroke-width:4.17px;"/><path d="M-8624.07,2719.64l34892.1,20145" style="fill:none;stroke:#000;stroke-width:4.17px;"/><path d="M-8455.41,2427.52l34892.1,20145" style="fill:none;stroke:#000;stroke-width:4.17px;"/><path d="M-8286.75,2135.4l34892.1,20145" style="fill:none;stroke:#000;stroke-width:4.17px;"/><path d="M-8118.1,1843.28l34892.1,20145" style="fill:none;stroke:#000;stroke-width:4.17px;"/><path d="M-7949.44,1551.16l34892.1,20145" style="fill:none;stroke:#000;stroke-width:4.17px;"/><path d="M-7780.79,1259.04l34892.1,20145" style="fill:none;stroke:#000;stroke-width:4.17px;"/><path d="M-7612.13,966.923l34892.1,20145" style="fill:none;stroke:#000;stroke-width:4.17px;"/><path d="M-7443.48,674.803l34892.1,20145" style="fill:none;stroke:#000;stroke-width:4.17px;"/><path d="M-7274.82,382.684l34892.1,20145" style="fill:none;stroke:#000;stroke-width:4.17px;"/><path d="M-7106.17,90.564l34892.1,20145" style="fill:none;stroke:#000;stroke-width:4.17px;"/><path d="M-6937.51,-201.556l34892.1,20145" style="fill:none;stroke:#000;stroke-width:4.17px;"/><path d="M-6768.86,-493.675l34892.1,20145" style="fill:none;stroke:#000;stroke-width:4.17px;"/><path d="M-6600.2,-785.795l34892.1,20145" style="fill:none;stroke:#000;stroke-width:4.17px;"/><path d="M-6431.55,-1077.91l34892.1,20145" style="fill:none;stroke:#000;stroke-width:4.17px;"/><path d="M-6262.89,-1370.03l34892.1,20145" style="fill:none;stroke:#000;stroke-width:4.17px;"/><path d="M-6094.23,-1662.15l34892.1,20145" style="fill:none;stroke:#000;stroke-width:4.17px;"/><path d="M-5925.58,-1954.27l34892.1,20145" style="fill:none;stroke:#000;stroke-width:4.17px;"/><path d="M-5756.93,-2246.39l34892.1,20145" style="fill:none;stroke:#000;stroke-width:4.17px;"/><path d="M-5588.27,-2538.51l34892.1,20145" style="fill:none;stroke:#000;stroke-width:4.17px;"/><path d="M-5419.61,-2830.63l34892.1,20145" style="fill:none;stroke:#000;stroke-width:4.17px;"/><path d="M-5250.96,-3122.75l34892.1,20145" style="fill:none;stroke:#000;stroke-width:4.17px;"/><path d="M-5082.3,-3414.87l34892.1,20145" style="fill:none;stroke:#000;stroke-width:4.17px;"/><path d="M-4913.65,-3706.99l34892.1,20145" style="fill:none;stroke:#000;stroke-width:4.17px;"/><path d="M-4744.99,-3999.11l34892.1,20145" style="fill:none;stroke:#000;stroke-width:4.17px;"/><path d="M-4576.34,-4291.23l34892.1,20145" style="fill:none;stroke:#000;stroke-width:4.17px;"/><path d="M-4407.68,-4583.35l34892.1,20145" style="fill:none;stroke:#000;stroke-width:4.17px;"/><path d="M-4239.03,-4875.47l34892.1,20145" style="fill:none;stroke:#000;stroke-width:4.17px;"/><path d="M-4070.37,-5167.59l34892.1,20145" style="fill:none;stroke:#000;stroke-width:4.17px;"/><path d="M-3901.72,-5459.71l34892.1,20145" style="fill:none;stroke:#000;stroke-width:4.17px;"/><path d="M-3733.06,-5751.83l34892.1,20145" style="fill:none;stroke:#000;stroke-width:4.17px;"/><path d="M-3564.41,-6043.95l34892.1,20145" style="fill:none;stroke:#000;stroke-width:4.17px;"/><path d="M-3395.75,-6336.07l34892.1,20145" style="fill:none;stroke:#000;stroke-width:4.17px;"/><path d="M-3227.1,-6628.19l34892.1,20145" style="fill:none;stroke:#000;stroke-width:4.17px;"/><path d="M-3058.44,-6920.31l34892.1,20145" style="fill:none;stroke:#000;stroke-width:4.17px;"/><path d="M-2889.78,-7212.43l34892.1,20145" style="fill:none;stroke:#000;stroke-width:4.17px;"/><path d="M-2721.13,-7504.54l34892.1,20145" style="fill:none;stroke:#000;stroke-width:4.17px;"/><path d="M-2552.47,-7796.66l34892.1,20145" style="fill:none;stroke:#000;stroke-width:4.17px;"/><path d="M-2383.82,-8088.78l34892.1,20145" style="fill:none;stroke:#000;stroke-width:4.17px;"/><path d="M-2215.16,-8380.9l34892.1,20145" style="fill:none;stroke:#000;stroke-width:4.17px;"/><path d="M-2046.51,-8673.02l34892.1,20145" style="fill:none;stroke:#000;stroke-width:4.17px;"/><path d="M-1877.85,-8965.14l34892.1,20145" style="fill:none;stroke:#000;stroke-width:4.17px;"/><path d="M-1709.2,-9257.26l34892.1,20145" style="fill:none;stroke:#000;stroke-width:4.17px;"/><path d="M-1540.54,-9549.38l34892.1,20145" style="fill:none;stroke:#000;stroke-width:4.17px;"/><path d="M-1371.89,-9841.5l34892.1,20145" style="fill:none;stroke:#000;stroke-width:4.17px;"/><path d="M-1203.23,-10133.6l34892.1,20145" style="fill:none;stroke:#000;stroke-width:4.17px;"/><path d="M-1034.58,-10425.7l34892.1,20145" style="fill:none;stroke:#000;stroke-width:4.17px;"/><path d="M-865.921,-10717.9l34892.1,20145" style="fill:none;stroke:#000;stroke-width:4.17px;"/><path d="M-697.266,-11010l34892.1,20145" style="fill:none;stroke:#000;stroke-width:4.17px;"/><path d="M-528.61,-11302.1l34892.1,20145" style="fill:none;stroke:#000;stroke-width:4.17px;"/><path d="M-359.955,-11594.2l34892.1,20145" style="fill:none;stroke:#000;stroke-width:4.17px;"/><path d="M-191.3,-11886.3l34892.1,20145" style="fill:none;stroke:#000;stroke-width:4.17px;"/><path d="M-22.644,-12178.5l34892.1,20145" style="fill:none;stroke:#000;stroke-width:4.17px;"/><path d="M146.011,-12470.6l34892.1,20145" style="fill:none;stroke:#000;stroke-width:4.17px;"/><path d="M314.666,-12762.7l34892.1,20145" style="fill:none;stroke:#000;stroke-width:4.17px;"/><path d="M483.321,-13054.8l34892.1,20145" style="fill:none;stroke:#000;stroke-width:4.17px;"/><path d="M651.977,-13346.9l34892.1,20145" style="fill:none;stroke:#000;stroke-width:4.17px;"/><path d="M820.632,-13639.1l34892.1,20145" style="fill:none;stroke:#000;stroke-width:4.17px;"/><path d="M989.287,-13931.2l34892.1,20145" style="fill:none;stroke:#000;stroke-width:4.17px;"/></g></g></svg>