<?xml version="1.0" encoding="UTF-8" standalone="no"?><!DOCTYPE svg PUBLIC "-//W3C//DTD SVG 1.1//EN" "http://www.w3.org/Graphics/SVG/1.1/DTD/svg11.dtd"><svg width="100%" height="100%" viewBox="0 0 1760 600" version="1.1" xmlns="http://www.w3.org/2000/svg" xmlns:xlink="http://www.w3.org/1999/xlink" xml:space="preserve" xmlns:serif="http://www.serif.com/" style="fill-rule:evenodd;clip-rule:evenodd;stroke-linejoin:round;stroke-miterlimit:2;"><g id="logo"><g><path d="M333.887,307.415l0,45.421l-249.821,0l0,-45.421l249.821,-0Zm-15,15l-219.82,0l-0,15.422l219.82,-0l0,-15.422Z" style="fill:#ff8200;"/></g><g><path d="M100.838,359.637l216.278,0c-25.518,10.769 -72.287,32.301 -83.157,49.621c-12.507,19.929 11.356,64.823 9.084,88.325c-2.271,23.503 -22.711,52.69 -22.711,52.69l-22.711,0c0,0 -20.439,-29.187 -22.711,-52.69c-2.271,-23.502 21.592,-68.396 9.085,-88.325c-10.87,-17.32 -57.639,-38.852 -83.157,-49.621Zm64.389,15c3.246,1.95 6.354,3.918 9.257,5.888c10.257,6.959 18.127,14.244 22.216,20.76c6.681,10.646 7.066,26.532 3.547,43.886c-3.646,17.975 -11.663,37.965 -10.406,50.97c1.357,14.043 10.371,30.349 15.847,39.132l6.578,-0c5.476,-8.783 14.49,-25.089 15.847,-39.132c1.257,-13.005 -6.76,-32.995 -10.406,-50.97c-3.519,-17.354 -3.134,-33.24 3.547,-43.886c4.089,-6.516 11.959,-13.801 22.216,-20.76c2.903,-1.97 6.01,-3.938 9.258,-5.888l-87.501,-0Z" style="fill:#ff8200;"/></g><g id="Main-logo" serif:id="Main logo"><g><rect x="143.285" y="277.891" width="17.828" height="22.711" style="fill:#ff8200;"/></g><path d="M84.067,203.644l-0,-88.364l22.711,0l-0,75.126l45.422,-26.098l68.133,39.336l-0,26.225l-22.712,-12.981l-45.422,-26.356l-45.269,26.136l-0.153,61.422l0.001,22.484l-22.712,-0l0.001,-70.705l-34.067,19.668l-0,-26.224l34.067,-19.669Z" style="fill:#ff8200;"/><g><path d="M190.808,80.158l-95.159,54.94l-11.355,-19.668l106.514,-61.496l0,26.224Z" style="fill:#ff8200;"/></g><path d="M333.888,226.11l-0,74.464l-113.555,0.028l-0,-0.028l-22.712,-0l0,-76.873l22.712,12.981l-0,41.209l90.844,-0l-0,-51.781l22.711,-0Z" style="fill:#ff8200;"/><path d="M311.177,141.786l-90.844,-52.449l-0,107.494l-22.712,-13.112l0,-133.719l136.267,78.673l-0,52.015l-22.712,-0l0,-38.902Z" style="fill:#ff8200;"/></g></g><g><g><path d="M720.447,386.686l-20.601,-0l-0,21.691l-8.895,0l0,-51.187l32.52,-0l-0,7.172l-23.625,-0l-0,15.222l20.601,0l0,7.102Z" style="fill:#ff8200;fill-rule:nonzero;"/><rect x="752.629" y="357.19" width="8.859" height="51.188" style="fill:#ff8200;fill-rule:nonzero;"/><path d="M834.628,408.377l-8.895,0l-22.816,-36.316l-0,36.316l-8.895,0l0,-51.187l8.895,-0l22.887,36.457l-0,-36.457l8.824,-0l-0,51.187Z" style="fill:#ff8200;fill-rule:nonzero;"/><rect x="867.267" y="357.19" width="8.859" height="51.188" style="fill:#ff8200;fill-rule:nonzero;"/><path d="M935.414,395.194c-0,-2.25 -0.791,-3.985 -2.373,-5.204c-1.582,-1.218 -4.436,-2.449 -8.561,-3.691c-4.125,-1.242 -7.406,-2.625 -9.844,-4.148c-4.664,-2.93 -6.996,-6.75 -6.996,-11.461c0,-4.125 1.682,-7.524 5.045,-10.196c3.363,-2.671 7.729,-4.007 13.096,-4.007c3.562,-0 6.738,0.656 9.527,1.968c2.789,1.313 4.981,3.182 6.574,5.608c1.594,2.426 2.391,5.115 2.391,8.068l-8.859,0c-0,-2.672 -0.838,-4.764 -2.514,-6.275c-1.676,-1.512 -4.072,-2.268 -7.189,-2.268c-2.907,0 -5.163,0.621 -6.768,1.863c-1.605,1.243 -2.408,2.977 -2.408,5.204c-0,1.875 0.867,3.439 2.601,4.693c1.735,1.254 4.594,2.473 8.578,3.656c3.985,1.184 7.184,2.531 9.598,4.043c2.414,1.512 4.184,3.246 5.309,5.203c1.125,1.957 1.687,4.248 1.687,6.873c0,4.266 -1.635,7.659 -4.904,10.178c-3.27,2.52 -7.705,3.779 -13.307,3.779c-3.703,0 -7.107,-0.685 -10.213,-2.056c-3.105,-1.371 -5.519,-3.264 -7.242,-5.678c-1.722,-2.414 -2.584,-5.227 -2.584,-8.438l8.895,0c-0,2.907 0.961,5.157 2.883,6.75c1.921,1.594 4.675,2.391 8.261,2.391c3.094,0 5.42,-0.627 6.979,-1.881c1.558,-1.254 2.338,-2.912 2.338,-4.974Z" style="fill:#ff8200;fill-rule:nonzero;"/><path d="M1014.35,408.377l-8.86,0l0,-22.746l-22.887,0l0,22.746l-8.894,0l-0,-51.187l8.894,-0l0,21.304l22.887,0l0,-21.304l8.86,-0l-0,51.187Z" style="fill:#ff8200;fill-rule:nonzero;"/><rect x="1046.99" y="357.19" width="8.859" height="51.188" style="fill:#ff8200;fill-rule:nonzero;"/><path d="M1128.99,408.377l-8.894,0l-22.817,-36.316l0,36.316l-8.894,0l-0,-51.187l8.894,-0l22.887,36.457l-0,-36.457l8.824,-0l0,51.187Z" style="fill:#ff8200;fill-rule:nonzero;"/><path d="M1200.34,401.733c-1.851,2.414 -4.418,4.242 -7.699,5.484c-3.281,1.242 -7.008,1.863 -11.18,1.863c-4.289,0 -8.086,-0.972 -11.39,-2.918c-3.305,-1.945 -5.854,-4.728 -7.647,-8.349c-1.793,-3.621 -2.724,-7.846 -2.795,-12.674l0,-4.008c0,-7.734 1.852,-13.775 5.555,-18.123c3.703,-4.348 8.871,-6.521 15.504,-6.521c5.695,-0 10.219,1.406 13.57,4.218c3.352,2.813 5.367,6.868 6.047,12.164l-8.719,0c-0.984,-6.164 -4.558,-9.246 -10.722,-9.246c-3.985,0 -7.014,1.436 -9.088,4.307c-2.075,2.871 -3.147,7.084 -3.217,12.639l-0,3.937c-0,5.531 1.166,9.826 3.498,12.885c2.332,3.058 5.572,4.588 9.721,4.588c4.547,-0 7.781,-1.031 9.703,-3.094l-0,-10.02l-10.547,0l-0,-6.75l19.406,0l0,19.618Z" style="fill:#ff8200;fill-rule:nonzero;"/><path d="M1280.13,401.276l23.238,-0l0,7.101l-32.133,0l0,-51.187l8.895,-0l-0,44.086Z" style="fill:#ff8200;fill-rule:nonzero;"/><path d="M1340.69,401.276l23.238,-0l0,7.101l-32.133,0l0,-51.187l8.895,-0l-0,44.086Z" style="fill:#ff8200;fill-rule:nonzero;"/><path d="M1429.15,391.713c-0.516,5.461 -2.531,9.721 -6.047,12.779c-3.515,3.059 -8.191,4.588 -14.027,4.588c-4.078,0 -7.67,-0.966 -10.776,-2.9c-3.105,-1.934 -5.501,-4.682 -7.189,-8.244c-1.687,-3.563 -2.566,-7.699 -2.637,-12.41l0,-4.782c0,-4.828 0.856,-9.082 2.567,-12.761c1.711,-3.68 4.166,-6.516 7.365,-8.508c3.199,-1.992 6.896,-2.988 11.092,-2.988c5.648,-0 10.195,1.535 13.64,4.605c3.446,3.07 5.45,7.406 6.012,13.008l-8.859,-0c-0.422,-3.68 -1.494,-6.334 -3.217,-7.963c-1.723,-1.629 -4.248,-2.443 -7.576,-2.443c-3.867,-0 -6.838,1.412 -8.912,4.236c-2.075,2.824 -3.135,6.967 -3.182,12.428l0,4.535c0,5.531 0.99,9.75 2.971,12.656c1.98,2.906 4.881,4.359 8.701,4.359c3.492,0 6.117,-0.785 7.875,-2.355c1.758,-1.57 2.871,-4.184 3.34,-7.84l8.859,0Z" style="fill:#ff8200;fill-rule:nonzero;"/></g><g><path d="M1148.55,307.48c-7.872,-0 -15.443,-1.312 -22.714,-3.936c-7.27,-2.624 -13.694,-6.341 -19.27,-11.152c-5.576,-4.811 -9.976,-10.605 -13.202,-17.384c-3.225,-6.779 -4.838,-14.323 -4.838,-22.632c0,-7.763 1.64,-15.061 4.92,-21.894c3.28,-6.833 7.845,-12.792 13.694,-17.876c5.85,-5.084 12.656,-9.075 20.418,-11.972c7.763,-2.897 16.182,-4.346 25.256,-4.346c4.046,-0 7.654,0.191 10.824,0.574c3.171,0.383 6.232,0.902 9.184,1.558c2.952,0.656 6.123,1.531 9.512,2.624c1.422,0.437 2.488,1.039 3.198,1.804c0.711,0.765 1.121,1.913 1.23,3.444c0.328,2.843 0.629,5.795 0.902,8.856c0.274,3.061 0.465,6.451 0.574,10.168c0,0.984 -0.41,1.695 -1.23,2.132c-0.82,0.437 -1.722,0.519 -2.706,0.246c-0.984,-0.273 -1.64,-1.011 -1.968,-2.214c-0.984,-3.608 -2.132,-6.833 -3.444,-9.676c-1.312,-2.843 -3.225,-5.193 -5.74,-7.052c-2.514,-1.968 -5.712,-3.499 -9.594,-4.592c-3.881,-1.093 -8.227,-1.64 -13.038,-1.64c-6.122,-0 -11.753,1.257 -16.892,3.772c-5.138,2.515 -9.512,5.931 -13.12,10.25c-3.608,4.319 -6.423,9.211 -8.446,14.678c-2.022,5.467 -3.034,11.152 -3.034,17.056c0,6.888 0.957,13.503 2.87,19.844c1.914,6.341 4.702,11.972 8.364,16.892c3.663,4.92 8.118,8.829 13.366,11.726c5.248,2.897 11.152,4.346 17.712,4.346c7.872,-0 14.378,-1.777 19.516,-5.33c5.139,-3.553 9.458,-8.665 12.956,-15.334c0.766,-1.531 1.914,-2.296 3.444,-2.296c1.531,-0 2.296,0.875 2.296,2.624c0,1.093 -0.191,2.597 -0.574,4.51c-0.382,1.913 -0.902,3.991 -1.558,6.232c-0.656,2.241 -1.312,4.291 -1.968,6.15c-0.656,1.421 -1.257,2.405 -1.804,2.952c-0.546,0.547 -1.585,1.093 -3.116,1.64c-4.154,1.749 -9.047,3.061 -14.678,3.936c-5.63,0.875 -11.398,1.312 -17.302,1.312Z" style="fill:#ff8200;fill-rule:nonzero;"/><path d="M1239.4,305.84c-1.202,-0 -2.186,-0.219 -2.952,-0.656c-0.765,-0.437 -1.148,-0.929 -1.148,-1.476c0,-0.875 0.438,-1.558 1.312,-2.05c0.875,-0.492 1.586,-0.793 2.132,-0.902c4.155,-0.984 7.244,-2.241 9.266,-3.772c2.023,-1.531 3.034,-4.1 3.034,-7.708l0,-75.604c0,-2.624 -0.273,-4.565 -0.82,-5.822c-0.546,-1.257 -1.558,-2.214 -3.034,-2.87c-1.476,-0.656 -3.58,-1.257 -6.314,-1.804c-3.17,-0.656 -4.756,-1.749 -4.756,-3.28c0,-0.765 0.41,-1.312 1.23,-1.64c0.82,-0.328 1.832,-0.492 3.034,-0.492c2.734,-0 5.194,0.055 7.38,0.164c2.187,0.109 4.264,0.219 6.232,0.328c1.968,0.109 4.155,0.164 6.56,0.164c2.515,-0 4.92,-0.027 7.216,-0.082c2.296,-0.055 4.647,-0.137 7.052,-0.246c2.406,-0.109 4.975,-0.164 7.708,-0.164c1.312,-0 2.324,0.137 3.034,0.41c0.711,0.273 1.066,0.793 1.066,1.558c0,0.875 -0.382,1.558 -1.148,2.05c-0.765,0.492 -1.968,0.902 -3.608,1.23c-4.154,0.984 -7.434,2.05 -9.84,3.198c-2.405,1.148 -3.608,3.307 -3.608,6.478l0,75.932c0,3.389 0.738,5.822 2.214,7.298c1.476,1.476 4.51,2.214 9.102,2.214l19.024,-0c2.843,-0 5.33,-0.437 7.462,-1.312c2.132,-0.875 3.8,-1.859 5.002,-2.952c2.078,-1.859 3.69,-3.635 4.838,-5.33c1.148,-1.695 2.378,-3.963 3.69,-6.806c0.547,-1.203 1.148,-2.351 1.804,-3.444c0.656,-1.093 1.367,-1.64 2.132,-1.64c0.766,-0 1.312,0.355 1.64,1.066c0.328,0.711 0.492,1.394 0.492,2.05c0,0.219 -0.054,0.492 -0.164,0.82c-0.109,0.328 -0.164,0.656 -0.164,0.984c-0.765,2.952 -1.476,5.576 -2.132,7.872c-0.656,2.296 -1.175,4.483 -1.558,6.56c-0.382,2.077 -0.683,4.319 -0.902,6.724c-0.109,0.765 -0.328,1.449 -0.656,2.05c-0.328,0.601 -0.929,0.902 -1.804,0.902c-4.264,-0 -8.801,-0.055 -13.612,-0.164c-4.81,-0.109 -9.676,-0.191 -14.596,-0.246c-4.92,-0.055 -9.758,-0.137 -14.514,-0.246c-4.756,-0.109 -9.32,-0.164 -13.694,-0.164c-2.624,-0 -5.548,0.055 -8.774,0.164c-3.225,0.109 -6.177,0.246 -8.856,0.41c-2.678,0.164 -4.346,0.246 -5.002,0.246Z" style="fill:#ff8200;fill-rule:nonzero;"/><path d="M1364.04,305.84c-1.312,-0 -2.405,-0.191 -3.28,-0.574c-0.874,-0.383 -1.312,-0.957 -1.312,-1.722c0,-0.875 0.438,-1.585 1.312,-2.132c0.875,-0.547 2.078,-1.093 3.608,-1.64c2.952,-0.875 5.631,-2.187 8.036,-3.936c2.406,-1.749 4.374,-4.428 5.904,-8.036c2.952,-6.669 5.686,-13.038 8.2,-19.106c2.515,-6.068 4.92,-12.054 7.216,-17.958c2.296,-5.904 4.647,-11.999 7.052,-18.286c2.406,-6.287 4.866,-12.983 7.38,-20.09c0.984,-2.515 1.695,-4.619 2.132,-6.314c0.438,-1.695 0.711,-3.198 0.82,-4.51c1.422,-0.328 2.734,-0.683 3.936,-1.066c1.203,-0.383 2.515,-0.957 3.936,-1.722c1.312,-0.656 2.324,-1.613 3.034,-2.87c0.711,-1.257 1.285,-2.159 1.722,-2.706c0.219,-0.109 0.465,-0.191 0.738,-0.246c0.274,-0.055 0.52,0.137 0.738,0.574c0.328,0.547 0.574,1.148 0.738,1.804c0.164,0.656 0.356,1.367 0.574,2.132c2.515,7.981 5.112,16.099 7.79,24.354c2.679,8.255 5.33,16.318 7.954,24.19c2.624,7.872 5.084,15.17 7.38,21.894c2.296,6.724 4.264,12.601 5.904,17.63c1.203,3.608 2.624,6.369 4.264,8.282c1.64,1.913 3.39,3.335 5.248,4.264c1.859,0.929 3.882,1.613 6.068,2.05c1.64,0.328 2.87,0.82 3.69,1.476c0.82,0.656 1.23,1.421 1.23,2.296c0,0.656 -0.41,1.121 -1.23,1.394c-0.82,0.273 -1.831,0.41 -3.034,0.41c-1.749,-0 -4.045,-0.082 -6.888,-0.246c-2.842,-0.164 -5.794,-0.301 -8.856,-0.41c-3.061,-0.109 -5.849,-0.164 -8.364,-0.164l-6.888,-0c-2.514,-0 -4.892,0.055 -7.134,0.164c-2.241,0.109 -4.182,0.164 -5.822,0.164c-1.312,-0 -2.378,-0.191 -3.198,-0.574c-0.82,-0.383 -1.23,-0.902 -1.23,-1.558c0,-0.875 0.492,-1.585 1.476,-2.132c0.984,-0.547 2.132,-0.929 3.444,-1.148c3.718,-0.656 6.424,-1.64 8.118,-2.952c1.695,-1.312 2.378,-3.061 2.05,-5.248c-0.109,-1.859 -0.492,-4.182 -1.148,-6.97c-0.656,-2.788 -1.421,-5.74 -2.296,-8.856c-0.874,-3.116 -1.694,-5.986 -2.46,-8.61c-0.218,-0.875 -0.601,-1.421 -1.148,-1.64c-0.546,-0.219 -1.476,-0.328 -2.788,-0.328l-30.34,-0c-0.546,-0 -1.038,0.191 -1.476,0.574c-0.437,0.383 -0.874,1.121 -1.312,2.214c-0.328,1.312 -0.847,2.979 -1.558,5.002c-0.71,2.023 -1.394,4.155 -2.05,6.396c-0.656,2.241 -1.23,4.319 -1.722,6.232c-0.492,1.913 -0.792,3.307 -0.902,4.182c-0.328,2.733 0.356,4.893 2.05,6.478c1.695,1.585 4.237,2.815 7.626,3.69c3.28,0.875 4.92,1.968 4.92,3.28c0,0.765 -0.41,1.285 -1.23,1.558c-0.82,0.273 -1.886,0.41 -3.198,0.41c-2.077,-0 -4.482,-0.055 -7.216,-0.164c-2.733,-0.109 -5.63,-0.164 -8.692,-0.164c-3.498,-0 -6.888,0.164 -10.168,0.492c-3.28,0.328 -6.396,0.492 -9.348,0.492Zm38.868,-47.396l23.944,-0c1.531,-0 2.296,-0.273 2.296,-0.82c0,-0.328 -0.027,-0.601 -0.082,-0.82c-0.054,-0.219 -0.136,-0.547 -0.246,-0.984l-12.136,-38.868c-0.546,-1.749 -0.984,-2.624 -1.312,-2.624c-0.218,-0 -0.601,0.82 -1.148,2.46l-14.268,39.032c-0.218,0.656 -0.328,1.093 -0.328,1.312c0,0.547 0.301,0.902 0.902,1.066c0.602,0.164 1.394,0.246 2.378,0.246Z" style="fill:#ff8200;fill-rule:nonzero;"/><path d="M1542.15,307.48c-4.592,-0 -8.91,-0.629 -12.956,-1.886c-4.045,-1.257 -7.762,-3.143 -11.152,-5.658c-0.437,-0.437 -0.902,-0.957 -1.394,-1.558c-0.492,-0.601 -0.847,-1.23 -1.066,-1.886c-0.765,-2.515 -1.284,-5.658 -1.558,-9.43c-0.273,-3.772 -0.464,-7.134 -0.574,-10.086c0,-0.765 0.328,-1.339 0.984,-1.722c0.656,-0.383 1.422,-0.574 2.296,-0.574c0.766,-0 1.394,0.137 1.886,0.41c0.492,0.273 0.848,0.793 1.066,1.558c2.296,8.309 5.686,14.514 10.168,18.614c4.483,4.1 9.348,6.15 14.596,6.15c3.718,-0 6.916,-0.82 9.594,-2.46c2.679,-1.64 4.784,-3.854 6.314,-6.642c1.531,-2.788 2.296,-5.931 2.296,-9.43c0,-4.155 -0.71,-7.544 -2.132,-10.168c-1.421,-2.624 -3.498,-4.975 -6.232,-7.052c-2.733,-2.077 -6.122,-4.319 -10.168,-6.724c-4.373,-2.624 -8.664,-5.357 -12.874,-8.2c-4.209,-2.843 -7.68,-6.177 -10.414,-10.004c-2.733,-3.827 -4.1,-8.528 -4.1,-14.104c0,-5.904 1.394,-11.125 4.182,-15.662c2.788,-4.537 6.861,-8.145 12.218,-10.824c5.358,-2.679 11.808,-4.018 19.352,-4.018c3.936,-0 7.517,0.41 10.742,1.23c3.226,0.82 5.822,1.667 7.79,2.542c0.984,0.328 1.777,0.875 2.378,1.64c0.602,0.765 1.066,1.695 1.394,2.788c0.547,2.296 1.148,4.975 1.804,8.036c0.656,3.061 0.984,6.177 0.984,9.348c0,1.203 -0.874,1.804 -2.624,1.804c-0.984,-0 -1.913,-0.219 -2.788,-0.656c-0.874,-0.437 -1.421,-0.984 -1.64,-1.64c-2.186,-6.123 -4.892,-10.769 -8.118,-13.94c-3.225,-3.171 -7.298,-4.756 -12.218,-4.756c-3.28,-0 -6.259,0.574 -8.938,1.722c-2.678,1.148 -4.81,3.007 -6.396,5.576c-1.585,2.569 -2.378,5.931 -2.378,10.086c0,2.952 1.012,5.713 3.034,8.282c2.023,2.569 4.756,5.029 8.2,7.38c3.444,2.351 7.298,4.783 11.562,7.298c4.483,2.733 8.528,5.576 12.136,8.528c3.608,2.952 6.451,6.314 8.528,10.086c2.078,3.772 3.116,8.282 3.116,13.53c0,6.888 -1.53,12.765 -4.592,17.63c-3.061,4.865 -7.352,8.555 -12.874,11.07c-5.521,2.515 -11.999,3.772 -19.434,3.772Z" style="fill:#ff8200;fill-rule:nonzero;"/><path d="M1652.85,307.48c-4.592,-0 -8.91,-0.629 -12.956,-1.886c-4.045,-1.257 -7.762,-3.143 -11.152,-5.658c-0.437,-0.437 -0.902,-0.957 -1.394,-1.558c-0.492,-0.601 -0.847,-1.23 -1.066,-1.886c-0.765,-2.515 -1.284,-5.658 -1.558,-9.43c-0.273,-3.772 -0.464,-7.134 -0.574,-10.086c0,-0.765 0.328,-1.339 0.984,-1.722c0.656,-0.383 1.422,-0.574 2.296,-0.574c0.766,-0 1.394,0.137 1.886,0.41c0.492,0.273 0.848,0.793 1.066,1.558c2.296,8.309 5.686,14.514 10.168,18.614c4.483,4.1 9.348,6.15 14.596,6.15c3.718,-0 6.916,-0.82 9.594,-2.46c2.679,-1.64 4.784,-3.854 6.314,-6.642c1.531,-2.788 2.296,-5.931 2.296,-9.43c0,-4.155 -0.71,-7.544 -2.132,-10.168c-1.421,-2.624 -3.498,-4.975 -6.232,-7.052c-2.733,-2.077 -6.122,-4.319 -10.168,-6.724c-4.373,-2.624 -8.664,-5.357 -12.874,-8.2c-4.209,-2.843 -7.68,-6.177 -10.414,-10.004c-2.733,-3.827 -4.1,-8.528 -4.1,-14.104c0,-5.904 1.394,-11.125 4.182,-15.662c2.788,-4.537 6.861,-8.145 12.218,-10.824c5.358,-2.679 11.808,-4.018 19.352,-4.018c3.936,-0 7.517,0.41 10.742,1.23c3.226,0.82 5.822,1.667 7.79,2.542c0.984,0.328 1.777,0.875 2.378,1.64c0.602,0.765 1.066,1.695 1.394,2.788c0.547,2.296 1.148,4.975 1.804,8.036c0.656,3.061 0.984,6.177 0.984,9.348c0,1.203 -0.874,1.804 -2.624,1.804c-0.984,-0 -1.913,-0.219 -2.788,-0.656c-0.874,-0.437 -1.421,-0.984 -1.64,-1.64c-2.186,-6.123 -4.892,-10.769 -8.118,-13.94c-3.225,-3.171 -7.298,-4.756 -12.218,-4.756c-3.28,-0 -6.259,0.574 -8.938,1.722c-2.678,1.148 -4.81,3.007 -6.396,5.576c-1.585,2.569 -2.378,5.931 -2.378,10.086c0,2.952 1.012,5.713 3.034,8.282c2.023,2.569 4.756,5.029 8.2,7.38c3.444,2.351 7.298,4.783 11.562,7.298c4.483,2.733 8.528,5.576 12.136,8.528c3.608,2.952 6.451,6.314 8.528,10.086c2.078,3.772 3.116,8.282 3.116,13.53c0,6.888 -1.53,12.765 -4.592,17.63c-3.061,4.865 -7.352,8.555 -12.874,11.07c-5.521,2.515 -11.999,3.772 -19.434,3.772Z" style="fill:#ff8200;fill-rule:nonzero;"/></g><g><path d="M457.483,305.745c-1.199,0 -2.204,-0.16 -3.015,-0.481c-0.81,-0.322 -1.215,-0.826 -1.215,-1.512c-0,-1.471 1.581,-2.519 4.745,-3.145c4.155,-0.796 7.017,-2.005 8.586,-3.628c1.569,-1.623 2.354,-4.361 2.354,-8.215l-0,-70.731c-0,-4.508 -0.645,-7.907 -1.934,-10.198c-1.289,-2.291 -3.963,-3.835 -8.022,-4.633c-1.7,-0.328 -2.931,-0.781 -3.695,-1.36c-0.763,-0.578 -1.145,-1.234 -1.145,-1.966c-0,-0.689 0.397,-1.201 1.193,-1.538c0.795,-0.336 1.839,-0.505 3.132,-0.505c3.571,0 6.758,0.055 9.562,0.164c2.804,0.11 5.573,0.207 8.307,0.294c2.733,0.086 5.736,0.129 9.009,0.129l23.516,0c3.848,0 7.285,-0.281 10.313,-0.844c3.028,-0.563 5.589,-0.845 7.684,-0.845c0.642,0 1.331,0.149 2.065,0.448c0.735,0.298 1.157,0.831 1.266,1.6c0.219,1.647 0.383,3.717 0.492,6.21c0.109,2.493 0.191,4.889 0.246,7.187c0.055,2.297 0.082,4.003 0.082,5.117c0,2.263 -0.555,3.395 -1.666,3.395c-0.546,0 -1.086,-0.199 -1.618,-0.597c-0.532,-0.398 -0.907,-0.933 -1.126,-1.607c-0.533,-2.143 -1.167,-4.041 -1.903,-5.693c-0.735,-1.652 -1.596,-2.972 -2.581,-3.959c-1.5,-1.656 -3.187,-2.8 -5.061,-3.433c-1.874,-0.633 -3.961,-0.949 -6.261,-0.949l-17.786,-0c-2.578,-0 -4.314,0.772 -5.209,2.317c-0.896,1.546 -1.382,3.443 -1.458,5.693c-0.079,2.014 -0.118,4.461 -0.118,7.34l-0,16.379c-0,2.842 0.039,5.327 0.118,7.454c-0,1.032 0.169,1.907 0.507,2.625c0.338,0.718 0.969,1.078 1.891,1.078c3.213,-0 6.474,-0.059 9.781,-0.176c3.307,-0.117 6.025,-0.175 8.151,-0.175c2.532,-0 4.601,-0.72 6.208,-2.158c1.607,-1.438 2.824,-3.166 3.653,-5.184c0.282,-0.596 0.743,-1.218 1.382,-1.864c0.64,-0.647 1.211,-0.97 1.713,-0.97c0.468,-0 0.96,0.269 1.475,0.808c0.515,0.539 0.718,1.255 0.609,2.146c-0.142,2.018 -0.275,3.84 -0.4,5.468c-0.125,1.627 -0.187,3.144 -0.187,4.552c-0,1.799 0.055,3.506 0.164,5.121c0.109,1.615 0.234,3.642 0.374,6.08c0.065,1.018 -0.017,1.824 -0.245,2.419c-0.228,0.594 -0.654,0.891 -1.277,0.891c-0.998,0 -1.821,-0.46 -2.47,-1.381c-0.65,-0.921 -1.1,-1.734 -1.351,-2.439c-0.828,-2.768 -1.968,-4.656 -3.419,-5.665c-1.452,-1.009 -2.944,-1.513 -4.478,-1.513c-1.359,0 -2.713,-0.019 -4.063,-0.058c-1.351,-0.038 -2.667,-0.057 -3.948,-0.057l-5.221,-0c-1.718,-0 -3.42,0.077 -5.106,0.23c-1.124,0.079 -2.045,0.427 -2.763,1.043c-0.719,0.617 -1.078,1.604 -1.078,2.963c0,4.998 0.036,10.118 0.107,15.358c0.07,5.24 0.184,10.515 0.339,15.825c0.155,3.466 1.034,6.127 2.637,7.982c1.602,1.855 4.522,3.197 8.758,4.025c1.605,0.298 2.797,0.673 3.576,1.125c0.78,0.453 1.17,1.11 1.17,1.971c0,0.688 -0.374,1.193 -1.122,1.513c-0.748,0.32 -1.754,0.481 -3.016,0.481c-2.763,-0 -5.214,-0.094 -7.353,-0.281c-2.14,-0.187 -4.156,-0.354 -6.048,-0.502c-1.892,-0.148 -3.892,-0.222 -6,-0.222c-2.497,0 -4.884,0.074 -7.161,0.222c-2.276,0.148 -4.588,0.323 -6.934,0.526c-2.346,0.204 -4.917,0.305 -7.712,0.305Z" style="fill:#ff8200;fill-rule:nonzero;"/><path d="M572.973,305.745c-1.2,0 -2.205,-0.16 -3.017,-0.481c-0.811,-0.322 -1.217,-0.826 -1.217,-1.512c0,-1.471 1.582,-2.519 4.746,-3.145c4.155,-0.796 7.23,-2.005 9.226,-3.628c1.997,-1.623 2.995,-4.284 2.995,-7.982l-0,-74.226c-0,-3.731 -0.769,-6.384 -2.307,-7.961c-1.537,-1.577 -4.415,-2.78 -8.633,-3.608c-3.164,-0.624 -4.745,-1.749 -4.745,-3.375c-0,-0.687 0.405,-1.191 1.215,-1.512c0.811,-0.321 1.816,-0.482 3.015,-0.482c2.795,0 5.308,0.055 7.538,0.164c2.23,0.11 4.386,0.207 6.469,0.294c2.082,0.086 4.333,0.129 6.752,0.129c2.342,0 4.5,-0.035 6.474,-0.106c1.974,-0.071 4.042,-0.161 6.204,-0.271c2.162,-0.109 4.624,-0.164 7.386,-0.164c1.263,0 2.268,0.153 3.015,0.459c0.748,0.306 1.121,0.818 1.121,1.538c0,0.859 -0.389,1.546 -1.168,2.061c-0.779,0.515 -1.972,0.937 -3.577,1.265c-4.172,0.924 -7.108,2.174 -8.808,3.751c-1.7,1.577 -2.549,4.199 -2.549,7.867l-0,74.128c-0,3.605 1.021,6.226 3.063,7.864c2.042,1.639 5.118,2.904 9.226,3.795c1.604,0.328 2.796,0.711 3.576,1.148c0.78,0.438 1.17,1.087 1.17,1.948c0,0.688 -0.374,1.193 -1.122,1.513c-0.749,0.32 -1.754,0.481 -3.016,0.481c-2.763,-0 -5.283,-0.074 -7.56,-0.222c-2.277,-0.148 -4.481,-0.276 -6.611,-0.386c-2.13,-0.109 -4.405,-0.164 -6.824,-0.164c-2.574,0 -5,0.055 -7.276,0.164c-2.277,0.11 -4.608,0.246 -6.993,0.41c-2.386,0.164 -4.975,0.246 -7.768,0.246Z" style="fill:#ff8200;fill-rule:nonzero;"/><path d="M759.318,308.464c-3.95,0 -7.49,-0.397 -10.619,-1.19c-3.13,-0.794 -5.906,-2.013 -8.329,-3.657c-2.422,-1.644 -4.65,-3.71 -6.683,-6.197c-2.528,-3.248 -4.963,-6.407 -7.305,-9.476c-2.342,-3.07 -4.766,-6.534 -7.27,-10.391c-2.505,-3.858 -5.416,-8.609 -8.736,-14.256c-1.481,-2.639 -3.53,-4.628 -6.147,-5.968c-1.898,-0.98 -3.784,-1.669 -5.659,-2.066c-1.875,-0.397 -3.435,-0.634 -4.681,-0.711c-0.78,-0.079 -1.346,0.202 -1.696,0.843c-0.35,0.64 -0.525,1.453 -0.525,2.437l-0,29.72c-0,3.466 0.859,6.301 2.577,8.506c1.719,2.204 4.697,3.721 8.933,4.549c1.604,0.298 2.796,0.673 3.576,1.125c0.78,0.453 1.17,1.11 1.17,1.971c0,0.688 -0.374,1.193 -1.122,1.513c-0.749,0.32 -1.754,0.481 -3.016,0.481c-2.763,-0 -5.214,-0.094 -7.354,-0.281c-2.139,-0.187 -4.155,-0.354 -6.046,-0.502c-1.891,-0.148 -3.891,-0.222 -6.001,-0.222c-2.575,0 -5.039,0.074 -7.393,0.222c-2.354,0.148 -4.724,0.323 -7.11,0.526c-2.385,0.204 -4.975,0.305 -7.768,0.305c-1.199,0 -2.204,-0.16 -3.016,-0.481c-0.811,-0.322 -1.217,-0.826 -1.217,-1.512c-0,-1.471 1.582,-2.519 4.746,-3.145c4.154,-0.796 7.133,-2.005 8.935,-3.628c1.802,-1.623 2.704,-4.361 2.704,-8.215l-0,-71.197c-0,-3.647 -0.215,-6.426 -0.645,-8.336c-0.43,-1.91 -1.336,-3.294 -2.719,-4.154c-1.383,-0.859 -3.58,-1.484 -6.592,-1.875c-1.7,-0.25 -2.931,-0.683 -3.695,-1.301c-0.763,-0.617 -1.145,-1.293 -1.145,-2.025c-0,-0.689 0.397,-1.201 1.193,-1.538c0.795,-0.336 1.839,-0.505 3.132,-0.505c3.144,0 5.588,0.032 7.333,0.095c1.745,0.063 3.4,0.146 4.966,0.249c1.566,0.102 3.537,0.153 5.915,0.153c2.235,0 4.228,-0.097 5.979,-0.293c1.751,-0.196 3.709,-0.372 5.874,-0.529c2.166,-0.157 4.961,-0.236 8.386,-0.236c12.28,0 21.674,2.218 28.182,6.652c6.509,4.435 9.764,11.12 9.764,20.054c-0,4.92 -1.016,9.126 -3.047,12.616c-2.031,3.49 -4.57,6.382 -7.617,8.676c-3.047,2.295 -6.149,4.128 -9.306,5.499c-0.437,0.11 -0.629,0.363 -0.574,0.761c0.055,0.399 0.23,0.839 0.525,1.323c3.359,5.044 6.596,9.847 9.712,14.406c3.116,4.56 6.453,8.939 10.012,13.138c3.558,4.199 7.622,8.412 12.19,12.638c3.128,2.833 6.334,4.538 9.619,5.116c3.285,0.579 6.841,0.868 10.668,0.868c1.64,-0 2.46,0.727 2.46,2.183c0,1.925 -0.828,3.409 -2.484,4.451c-1.657,1.042 -3.682,1.771 -6.076,2.187c-2.394,0.416 -4.714,0.624 -6.958,0.624Zm-59.817,-58.207c4.713,-0 8.735,-1.069 12.064,-3.207c3.33,-2.138 5.895,-4.979 7.696,-8.522c1.8,-3.543 2.7,-7.392 2.7,-11.546c0,-4.705 -0.597,-8.852 -1.792,-12.442c-1.195,-3.591 -3.372,-6.411 -6.531,-8.463c-3.158,-2.052 -7.691,-3.078 -13.596,-3.078c-3.118,0 -5.216,1.066 -6.294,3.197c-1.078,2.131 -1.694,6.134 -1.85,12.009c-0.077,2.638 -0.134,6.137 -0.173,10.499c-0.038,4.361 -0.057,9.584 -0.057,15.669c-0,2.575 0.693,4.199 2.08,4.873c1.387,0.674 3.305,1.011 5.753,1.011Z" style="fill:#ff8200;fill-rule:nonzero;"/><path d="M838.417,307.549c-4.625,0 -8.965,-0.636 -13.02,-1.907c-4.056,-1.272 -7.741,-3.149 -11.055,-5.632c-0.533,-0.469 -1.038,-1.001 -1.516,-1.595c-0.477,-0.593 -0.841,-1.234 -1.093,-1.923c-0.736,-2.472 -1.226,-5.592 -1.469,-9.361c-0.244,-3.768 -0.411,-7.164 -0.504,-10.188c0,-0.766 0.321,-1.332 0.961,-1.699c0.641,-0.367 1.399,-0.551 2.273,-0.551c0.737,-0 1.354,0.145 1.854,0.434c0.5,0.29 0.851,0.778 1.055,1.465c2.282,8.324 5.661,14.544 10.138,18.66c4.477,4.115 9.351,6.173 14.623,6.173c3.7,-0 6.908,-0.812 9.622,-2.437c2.715,-1.625 4.824,-3.845 6.328,-6.661c1.505,-2.816 2.257,-5.978 2.257,-9.485c-0,-4.135 -0.714,-7.524 -2.143,-10.17c-1.428,-2.645 -3.509,-4.99 -6.242,-7.035c-2.733,-2.045 -6.131,-4.255 -10.193,-6.629c-4.36,-2.67 -8.641,-5.423 -12.844,-8.258c-4.202,-2.835 -7.67,-6.171 -10.403,-10.009c-2.734,-3.838 -4.1,-8.555 -4.1,-14.151c-0,-5.862 1.408,-11.073 4.224,-15.635c2.816,-4.563 6.893,-8.175 12.231,-10.837c5.337,-2.663 11.753,-3.994 19.248,-3.994c3.999,0 7.606,0.418 10.82,1.254c3.214,0.837 5.792,1.669 7.732,2.498c1.032,0.391 1.841,0.945 2.427,1.663c0.586,0.717 1.036,1.656 1.35,2.816c0.624,2.296 1.247,4.975 1.87,8.038c0.622,3.063 0.934,6.144 0.934,9.243c-0,1.268 -0.883,1.902 -2.65,1.902c-0.953,-0 -1.879,-0.227 -2.776,-0.681c-0.898,-0.453 -1.456,-1.024 -1.675,-1.713c-2.137,-6.08 -4.831,-10.706 -8.082,-13.878c-3.251,-3.173 -7.323,-4.759 -12.215,-4.759c-3.311,0 -6.285,0.586 -8.922,1.757c-2.637,1.171 -4.746,3.02 -6.328,5.548c-1.582,2.527 -2.373,5.865 -2.373,10.013c0,3.027 1.011,5.808 3.032,8.344c2.021,2.536 4.757,4.983 8.207,7.341c3.451,2.357 7.263,4.825 11.434,7.403c4.556,2.709 8.642,5.541 12.258,8.496c3.616,2.954 6.464,6.318 8.545,10.09c2.08,3.772 3.121,8.296 3.121,13.573c-0,6.832 -1.532,12.688 -4.595,17.569c-3.063,4.88 -7.36,8.585 -12.892,11.115c-5.531,2.529 -12.016,3.793 -19.454,3.793Z" style="fill:#ff8200;fill-rule:nonzero;"/><path d="M947.784,305.745c-1.199,0 -2.228,-0.16 -3.086,-0.481c-0.859,-0.322 -1.288,-0.826 -1.288,-1.512c0,-0.829 0.414,-1.486 1.24,-1.971c0.827,-0.485 2.044,-0.876 3.649,-1.174c4.155,-0.796 7.27,-2.063 9.346,-3.802c2.075,-1.739 3.113,-4.497 3.113,-8.275l0,-65.059c0,-4.775 -0.109,-8.391 -0.328,-10.848c-0.218,-2.458 -0.55,-4.162 -0.994,-5.112c-0.444,-0.951 -1.057,-1.497 -1.837,-1.637c-1.309,-0.391 -2.795,-0.622 -4.458,-0.693c-1.663,-0.071 -3.583,-0.106 -5.759,-0.106l-6.281,-0c-2.909,-0 -5.752,0.638 -8.528,1.914c-2.776,1.276 -4.876,3.072 -6.301,5.386c-0.391,0.61 -1.017,1.49 -1.877,2.64c-0.86,1.15 -1.775,2.154 -2.744,3.015c-0.97,0.86 -1.94,1.29 -2.91,1.29c-0.596,-0 -1.008,-0.243 -1.235,-0.728c-0.227,-0.485 -0.341,-1.033 -0.341,-1.642c-0,-1.188 0.305,-2.392 0.915,-3.614c1.72,-3.486 2.983,-6.547 3.79,-9.181c0.806,-2.634 1.412,-5.742 1.817,-9.322c0.218,-1.763 0.652,-2.856 1.301,-3.279c0.649,-0.423 1.288,-0.634 1.914,-0.634c0.564,-0 1.303,0.671 2.217,2.015c0.914,1.344 1.684,2.453 2.311,3.327c0.815,1.031 2.438,1.803 4.868,2.318c2.43,0.515 4.666,0.773 6.707,0.773l59.156,-0.049c3.445,0 6.284,-0.234 8.515,-0.703c2.231,-0.469 4.078,-1.038 5.542,-1.708c1.471,-0.784 2.656,-1.638 3.556,-2.561c0.899,-0.924 2.02,-1.385 3.363,-1.385c0.456,-0 0.801,0.354 1.035,1.063c0.234,0.709 0.351,1.501 0.351,2.375c0,0.515 -0.066,1.201 -0.198,2.058c-0.133,0.858 -0.253,1.56 -0.363,2.107c-0.391,2.031 -0.771,3.666 -1.139,4.905c-0.368,1.24 -0.646,2.378 -0.835,3.414c-0.189,1.036 -0.283,2.344 -0.283,3.924l-0,2.396c-0,1.269 -0.211,2.501 -0.632,3.695c-0.421,1.194 -1.101,1.791 -2.038,1.791c-0.861,0 -1.55,-0.569 -2.067,-1.709c-0.517,-1.139 -1.042,-2.779 -1.575,-4.92c-0.722,-2.899 -2.209,-5.119 -4.458,-6.66c-2.25,-1.541 -5.92,-2.311 -11.009,-2.311l-13.712,-0c-2.214,-0 -3.915,0.36 -5.102,1.079c-1.187,0.719 -1.976,2.367 -2.368,4.944c-0.391,2.577 -0.586,6.698 -0.586,12.363l-0,65.021c-0,3.683 1.06,6.402 3.182,8.156c2.122,1.755 5.237,3.078 9.346,3.969c1.605,0.328 2.822,0.711 3.649,1.148c0.826,0.438 1.24,1.087 1.24,1.948c-0,0.688 -0.398,1.193 -1.193,1.513c-0.795,0.32 -1.824,0.481 -3.086,0.481c-2.763,-0 -5.299,-0.074 -7.609,-0.222c-2.309,-0.148 -4.553,-0.276 -6.73,-0.386c-2.177,-0.109 -4.476,-0.164 -6.897,-0.164c-2.574,0 -5.023,0.055 -7.347,0.164c-2.323,0.11 -4.693,0.246 -7.111,0.41c-2.417,0.164 -5.023,0.246 -7.818,0.246Z" style="fill:#ff8200;fill-rule:nonzero;"/></g></g></svg>