<?xml version="1.0" encoding="UTF-8" standalone="no"?><!DOCTYPE svg PUBLIC "-//W3C//DTD SVG 1.1//EN" "http://www.w3.org/Graphics/SVG/1.1/DTD/svg11.dtd"><svg width="100%" height="100%" viewBox="0 0 7334 2500" version="1.1" xmlns="http://www.w3.org/2000/svg" xmlns:xlink="http://www.w3.org/1999/xlink" xml:space="preserve" xmlns:serif="http://www.serif.com/" style="fill-rule:evenodd;clip-rule:evenodd;stroke-linejoin:round;stroke-miterlimit:2;"><g><g id="logo"><rect x="354.93" y="1280.33" width="1040.92" height="189.258" style="fill:#fff;"/><path d="M1395.85,1280.33l-0,189.258l-1040.92,0l-0,-189.258l1040.92,0Zm-62.5,62.5c-0,0 -700.197,0 -915.92,-0l-0,64.258c-0,0 915.92,0 915.92,0l-0,-64.258Z" style="fill:#fff;"/><path d="M424.809,1497.92c106.326,44.871 267.399,155.23 312.691,227.397c52.113,83.034 -13.517,249.453 -4.054,347.38c9.463,97.927 17.333,219.539 141.944,219.539c124.61,0 132.48,-121.612 141.943,-219.539c9.463,-97.927 -52.779,-277.704 -0.666,-360.738c45.292,-72.167 202.977,-169.168 309.303,-214.039l-901.161,-0Z" style="fill:#fff;"/><path d="M424.809,1497.92l901.161,-0c-106.326,44.871 -264.011,141.872 -309.303,214.039c-52.113,83.034 10.129,262.811 0.666,360.738c-9.463,97.927 -17.333,219.539 -141.943,219.539c-124.611,0 -132.481,-121.612 -141.944,-219.539c-9.463,-97.927 56.167,-264.346 4.054,-347.38c-45.292,-72.167 -206.365,-182.526 -312.691,-227.397Zm227.491,62.5c61.403,45.341 114.252,93.615 138.138,131.673c27.16,43.276 33.525,103.363 27.674,168.741c-6.382,71.301 -27.834,150.19 -22.456,205.851c3.423,35.422 6.176,74.337 15.986,108.204c8.602,29.693 24.229,54.847 63.748,54.847c39.519,0 55.145,-25.154 63.747,-54.847c9.811,-33.867 12.563,-72.782 15.986,-108.204c5.415,-56.039 -14.849,-140.085 -20.344,-215.539c-4.935,-67.768 2.166,-129.735 28.95,-172.411c22.6,-36.011 70.214,-78.277 126.41,-118.315l-437.839,0Z" style="fill:#fff;"/><g id="Main-logo" serif:id="Main logo"><rect x="601.675" y="1157.31" width="74.284" height="94.629" style="fill:#fff;"/><path d="M675.959,1157.31l-0,94.629l-74.284,0l0,-94.629l74.284,0Zm-4.167,4.167l-65.95,-0c-0,-0 -0,86.296 -0,86.296l65.95,-0l0,-86.296Z" style="fill:#fff;"/><path d="M354.93,847.949l-0,-368.185l94.629,0l-0,313.026l189.258,-108.744l283.887,163.903l0,109.268l-94.629,-54.088l-189.258,-109.815l-188.622,108.901l-0.636,255.923l-0,93.683l-94.629,-0l-0,-294.604l-141.944,81.951l0,-109.268l141.944,-81.951Z" style="fill:#fff;"/><path d="M354.93,847.949l-0,-368.185l94.629,0l-0,313.026l189.258,-108.744l283.887,163.903l0,109.268l-94.629,-54.088l-189.258,-109.815l-188.622,108.901l-0.636,255.923l-0,93.683l-94.629,-0l-0,-294.604l-141.944,81.951l0,-109.268l141.944,-81.951Z" style="fill:#fff;"/><path d="M799.686,333.423l-396.495,228.917l-47.315,-81.951l443.81,-256.234l0,109.268Z" style="fill:#fff;"/><path d="M799.686,333.423l-396.495,228.917l-47.315,-81.951l443.81,-256.234l0,109.268Z" style="fill:#fff;"/><path d="M1395.85,941.554l-0,310.267l-473.146,0.116l0,-0.116l-94.629,-0l0,-320.303l94.629,54.088l0,171.702l378.516,0l0,-215.754l94.63,-0Z" style="fill:#fff;"/><path d="M1395.85,941.554l-0,310.267l-473.146,0.116l0,-0.116l-94.629,-0l0,-320.303l94.629,54.088l0,171.702l378.516,0l0,-215.754l94.63,-0Z" style="fill:#fff;"/><path d="M1301.22,590.203l-378.516,-218.536l0,447.893l-94.629,-54.634l0,-557.161l567.775,327.804l-0,216.727l-94.63,-0l0,-162.093Z" style="fill:#fff;"/><path d="M1301.22,590.203l-378.516,-218.536l0,447.893l-94.629,-54.634l0,-557.161l567.775,327.804l-0,216.727l-94.63,-0l0,-162.093Z" style="fill:#fff;"/></g></g><g id="words"><g transform="matrix(266.667,0,0,266.667,7010.15,1680.66)"></g><text x="2016.92px" y="1680.66px" style="font-family:'Roboto-Regular', 'Roboto';font-size:266.667px;fill:#fff;">F<tspan x="2430.98px 2770.17px 3226.95px 3566.14px 3991.01px 4447.78px 4786.97px 5243.74px 5692.05px 6024.73px 6434.89px 6836.58px " y="1680.66px 1680.66px 1680.66px 1680.66px 1680.66px 1680.66px 1680.66px 1680.66px 1680.66px 1680.66px 1680.66px 1680.66px ">INISHING LLC</tspan></text><g><g transform="matrix(650,0,0,650,7142.45,1282.16)"></g><text x="4502.8px" y="1282.16px" style="font-family:'Raleway-Regular', 'Raleway';font-size:650px;fill:#fff;">C<tspan x="5096.9px 5624.05px 6205.15px 6747.9px " y="1282.16px 1282.16px 1282.16px 1282.16px ">LASS</tspan></text><g transform="matrix(650,0,0,650,4210.47,1280.85)"></g><text x="1858.77px" y="1280.85px" style="font-family:'Raleway-Regular', 'Raleway';font-size:650px;fill:#fff;">F<tspan x="2389.82px 2699.22px 3271.87px 3813.97px " y="1280.85px 1280.85px 1280.85px 1280.85px ">IRST</tspan></text></g></g></g></svg>