<?xml version="1.0" encoding="UTF-8" standalone="no"?>
<!DOCTYPE svg PUBLIC "-//W3C//DTD SVG 1.1//EN" "http://www.w3.org/Graphics/SVG/1.1/DTD/svg11.dtd">
<svg width="100%" height="100%" viewBox="0 0 32 32" version="1.1" xmlns="http://www.w3.org/2000/svg" xmlns:xlink="http://www.w3.org/1999/xlink" xml:space="preserve" xmlns:serif="http://www.serif.com/" style="fill-rule:evenodd;clip-rule:evenodd;stroke-linejoin:round;stroke-miterlimit:2;">
    <g transform="matrix(0.0512,0,0,0.0512,-6.4,-0.596)">
        <g id="Main-logo" serif:id="Main logo">
            <g transform="matrix(1,0,0,1,12.625,10)">
                <rect x="317.75" y="540" width="39.25" height="50" style="fill:rgb(255,130,0);"/>
            </g>
            <path d="M200,386.541L200,192L250,192L250,357.396L350,299.938L500,386.541L500,444.276L450,415.697L350,357.673L250.336,415.214L250,550.438L250,599.938L200,599.938L200,444.276L125,487.577L125,429.842L200,386.541Z" style="fill:rgb(255,130,0);"/>
            <g transform="matrix(1,3.46945e-18,-3.46945e-18,1,0.5,0.330127)">
                <path d="M434.5,114.346L225,235.301L200,192L434.5,56.611L434.5,114.346Z" style="fill:rgb(255,130,0);"/>
            </g>
            <path d="M750,436L750,599.938L500,600L500,599.938L450,599.938L450,430.697L500,459.276L500,550L700,550L700,436L750,436Z" style="fill:rgb(255,130,0);"/>
            <path d="M700,250.354L500,134.884L500,371.541L450,342.673L450,48.281L750,221.486L750,336L700,336L700,250.354Z" style="fill:rgb(255,130,0);"/>
        </g>
    </g>
</svg>
