<?xml version="1.0" encoding="UTF-8" standalone="no"?><!DOCTYPE svg PUBLIC "-//W3C//DTD SVG 1.1//EN" "http://www.w3.org/Graphics/SVG/1.1/DTD/svg11.dtd"><svg width="100%" height="100%" viewBox="0 0 134 134" version="1.1" xmlns="http://www.w3.org/2000/svg" xmlns:xlink="http://www.w3.org/1999/xlink" xml:space="preserve" xmlns:serif="http://www.serif.com/" style="fill-rule:evenodd;clip-rule:evenodd;stroke-linejoin:round;stroke-miterlimit:2;"><g><path d="M133.29,30.604l0,71.066c0,4.9 -3.982,8.883 -8.883,8.883l-115.481,-0c-4.9,-0 -8.883,-3.983 -8.883,-8.883l-0,-71.066c-0,-4.9 66.624,40.29 66.624,40.29c-0,0 66.623,-45.19 66.623,-40.29Zm-124.912,13.577l0,57.489c0,0.301 0.245,0.547 0.548,0.547l115.481,0c0.304,0 0.548,-0.246 0.548,-0.547l-0,-57.489l-53.61,33.613c-2.828,1.914 -6.529,1.914 -9.357,-0l-53.61,-33.613Z" style="fill:#fff;stroke:#fff;stroke-width:4.17px;"/></g><g><path d="M133.334,31.111l-0,71.112c-0,4.903 -3.986,8.889 -8.889,8.889l-115.556,-0c-4.904,-0 -8.889,-3.986 -8.889,-8.889l0,-71.112c0,-4.903 3.985,-8.889 8.889,-8.889l115.556,0c4.903,0 8.889,3.986 8.889,8.889Zm-8.334,0c0,-0.306 -0.252,-0.558 -0.555,-0.558l-115.556,0c-0.304,0 -0.556,0.252 -0.556,0.558l0,71.112c0,0.306 0.252,0.558 0.556,0.558l115.556,-0c0.303,-0 0.555,-0.252 0.555,-0.558l0,-71.112Z" style="fill:#fff;stroke:#fff;stroke-width:4.17px;"/></g></svg>