<?xml version="1.0" encoding="UTF-8" standalone="no"?>
<!DOCTYPE svg PUBLIC "-//W3C//DTD SVG 1.1//EN" "http://www.w3.org/Graphics/SVG/1.1/DTD/svg11.dtd">
<svg width="100%" height="100%" viewBox="0 0 32 32" version="1.1" xmlns="http://www.w3.org/2000/svg" xmlns:xlink="http://www.w3.org/1999/xlink" xml:space="preserve" xmlns:serif="http://www.serif.com/" style="fill-rule:evenodd;clip-rule:evenodd;stroke-linejoin:round;stroke-miterlimit:2;">
    <g transform="matrix(1.77663,0,0,1.18442,-5.31959,-4.26226)">
        <path d="M21,9.8L21,24.2C21,25.193 20.462,26 19.8,26L4.2,26C3.538,26 3,25.193 3,24.2L3,9.8C3,8.807 12,17.964 12,17.964C12,17.964 21,8.807 21,9.8ZM4.126,12.551L4.126,24.2C4.126,24.261 4.159,24.311 4.2,24.311L19.8,24.311C19.841,24.311 19.874,24.261 19.874,24.2L19.874,12.551L12.632,19.362C12.25,19.75 11.75,19.75 11.368,19.362L4.126,12.551Z"/>
    </g>
    <g transform="matrix(1.77778,0,0,1.18519,-5.33333,-4.14815)">
        <path d="M21,9.8L21,24.2C21,25.193 20.462,26 19.8,26L4.2,26C3.538,26 3,25.193 3,24.2L3,9.8C3,8.807 3.538,8 4.2,8L19.8,8C20.462,8 21,8.807 21,9.8ZM19.875,9.8C19.875,9.738 19.841,9.687 19.8,9.687L4.2,9.687C4.159,9.687 4.125,9.738 4.125,9.8L4.125,24.2C4.125,24.262 4.159,24.313 4.2,24.313L19.8,24.313C19.841,24.313 19.875,24.262 19.875,24.2L19.875,9.8Z"/>
    </g>
</svg>
