<?xml version="1.0" encoding="UTF-8" standalone="no"?><!DOCTYPE svg PUBLIC "-//W3C//DTD SVG 1.1//EN" "http://www.w3.org/Graphics/SVG/1.1/DTD/svg11.dtd"><svg width="100%" height="100%" viewBox="0 0 3334 884" version="1.1" xmlns="http://www.w3.org/2000/svg" xmlns:xlink="http://www.w3.org/1999/xlink" xml:space="preserve" xmlns:serif="http://www.serif.com/" style="fill-rule:evenodd;clip-rule:evenodd;stroke-linejoin:round;stroke-miterlimit:2;"><g><g><g><g><path d="M1203.24,197.42c-0,-108.492 -100.048,-196.57 -223.278,-196.57l-756.687,-0c-123.23,-0 -223.278,88.078 -223.278,196.57l0,380.176c0,108.487 100.048,196.569 223.278,196.569l50.123,0l-142.528,108.331l470.748,-108.331l378.344,0c123.23,0 223.278,-88.082 223.278,-196.569l-0,-380.176Z" style="fill:#ff8a00;"/></g><g><path d="M1203.24,194.18c-0,-106.703 -100.048,-193.33 -223.278,-193.33l-756.687,-0c-123.23,-0 -223.278,86.627 -223.278,193.33l0,386.655c0,106.7 100.048,193.326 223.278,193.326l756.687,0c123.23,0 223.278,-86.626 223.278,-193.326l-0,-386.655Z" style="fill:#ff8a00;"/></g></g><g><g transform="matrix(690.312,0,0,690.312,810.778,629.525)"></g><text x="411.017px" y="629.525px" style="font-family:'Roboto-Black', 'Roboto';font-weight:900;font-size:690.312px;fill:#fff;">3</text></g></g><g><g><g><text x="1300.66px" y="338.771px" style="font-family:'Roboto-Black', 'Roboto';font-weight:900;font-size:475.331px;">Y</text><text x="1584.04px" y="338.771px" style="font-family:'Roboto-Black', 'Roboto';font-weight:900;font-size:475.331px;">ear</text></g></g><g><g><text x="1289.2px" y="775.754px" style="font-family:'Roboto-Black', 'Roboto';font-weight:900;font-size:500.23px;">W</text><text x="1715.91px" y="775.754px" style="font-family:'Roboto-Black', 'Roboto';font-weight:900;font-size:500.23px;">arr</text><text x="2353.16px" y="775.754px" style="font-family:'Roboto-Black', 'Roboto';font-weight:900;font-size:500.23px;">anty</text></g></g></g></g></svg>