<?xml version="1.0" encoding="UTF-8" standalone="no"?>
<!DOCTYPE svg PUBLIC "-//W3C//DTD SVG 1.1//EN" "http://www.w3.org/Graphics/SVG/1.1/DTD/svg11.dtd">
<svg width="100%" height="100%" viewBox="0 0 800 212" version="1.1" xmlns="http://www.w3.org/2000/svg" xmlns:xlink="http://www.w3.org/1999/xlink" xml:space="preserve" xmlns:serif="http://www.serif.com/" style="fill-rule:evenodd;clip-rule:evenodd;stroke-linejoin:round;stroke-miterlimit:2;">
    <g transform="matrix(1.15051,0,0,1.15051,-48.3212,-269.557)">
        <g>
            <g>
                <g transform="matrix(1.06356,0,0,0.780885,-26.0678,70.891)">
                    <path d="M300,261.991C300,233.009 280.377,209.48 256.207,209.48L107.793,209.48C83.623,209.48 64,233.009 64,261.991L64,363.55C64,392.531 83.623,416.061 107.793,416.061L117.624,416.061L89.669,445L182,416.061L256.207,416.061C280.377,416.061 300,392.531 300,363.55L300,261.991Z" style="fill:rgb(255,138,0);"/>
                </g>
                <g transform="matrix(1.06356,0,0,0.768014,-26.0678,73.5872)">
                    <path d="M300,261.991C300,233.009 280.377,209.48 256.207,209.48L107.793,209.48C83.623,209.48 64,233.009 64,261.991L64,367.012C64,395.993 83.623,419.522 107.793,419.522L256.207,419.522C280.377,419.522 300,395.993 300,367.012L300,261.991Z" style="fill:rgb(255,138,0);"/>
                </g>
            </g>
            <g transform="matrix(11.0975,0,0,11.0975,-5678.85,-865.409)">
                <g transform="matrix(12.9759,0,0,12.9759,530.749,110.928)">
                </g>
                <text x="523.234px" y="110.928px" style="font-family:'Roboto-Black', 'Roboto';font-weight:900;font-size:12.976px;fill:white;">5</text>
            </g>
        </g>
        <g>
            <g transform="matrix(8.26297,0,0,8.26297,-4320.51,-877.221)">
                <g transform="matrix(12,0,0,12,585.398,143.07)">
                </g>
                <text x="560.795px" y="143.07px" style="font-family:'Roboto-Black', 'Roboto';font-weight:900;font-size:12px;">Y<tspan x="567.949px " y="143.07px ">e</tspan>ar</text>
            </g>
            <g transform="matrix(0.783582,0,0,0.783582,-134.171,120.346)">
                <g transform="matrix(133.17,0,0,133.17,1111.77,351.938)">
                </g>
                <text x="568.034px" y="351.938px" style="font-family:'Roboto-Black', 'Roboto';font-weight:900;font-size:133.17px;">W<tspan x="681.632px " y="351.938px ">a</tspan>rr<tspan x="851.28px " y="351.938px ">a</tspan>nty</text>
            </g>
        </g>
    </g>
</svg>
